<svg id="mermaidChart0" width="1200" height="345.75622208040846" viewBox="-50 -10 1050 301" style="width: 1192; height: 345.75622208040846;" version="1.1" xmlns="http://www.w3.org/2000/svg" xmlns:xlink="http://www.w3.org/1999/xlink"><style type="text/css" title="mermaid-svg-internal-css">/*  */
.actor { stroke: #ccccff; fill: #ececff;}
text.actor { fill: #000000; stroke: none;}
.actor-line { stroke: #808080;}
.messageline0 { stroke-width: 1.5px; stroke: #333333;}
.messageline1 { stroke-width: 1.5px; stroke: #333333;}
#arrowhead { fill: #333333;}
#crosshead path { fill: #333333 !important; stroke: #333333 !important;}
.messagetext { fill: #333333; stroke: none;}
/*  */
</style><g/><g><line id="actor0" x1="75" y1="5" x2="75" y2="290" class="actor-line" stroke-width="0.5px" stroke="#999"/><rect x="0" y="0" fill="#eaeaea" stroke="#666" width="150" height="65" rx="3" ry="3" class="actor"/><text x="75" y="37.5" class="actor" style="text-anchor: middle;">Edge</text></g><g><line id="actor1" x1="275" y1="5" x2="275" y2="290" class="actor-line" stroke-width="0.5px" stroke="#999"/><rect x="200" y="0" fill="#eaeaea" stroke="#666" width="150" height="65" rx="3" ry="3" class="actor"/><text x="275" y="37.5" class="actor" style="text-anchor: middle;">VD</text></g><g><line id="actor2" x1="475" y1="5" x2="475" y2="290" class="actor-line" stroke-width="0.5px" stroke="#999"/><rect x="400" y="0" fill="#eaeaea" stroke="#666" width="150" height="65" rx="3" ry="3" class="actor"/><text x="475" y="37.5" class="actor" style="text-anchor: middle;">Proxy</text></g><g><line id="actor3" x1="675" y1="5" x2="675" y2="290" class="actor-line" stroke-width="0.5px" stroke="#999"/><rect x="600" y="0" fill="#eaeaea" stroke="#666" width="150" height="65" rx="3" ry="3" class="actor"/><text x="675" y="37.5" class="actor" style="text-anchor: middle;">NSM</text></g><g><line id="actor4" x1="875" y1="5" x2="875" y2="290" class="actor-line" stroke-width="0.5px" stroke="#999"/><rect x="800" y="0" fill="#eaeaea" stroke="#666" width="150" height="65" rx="3" ry="3" class="actor"/><text x="875" y="37.5" class="actor" style="text-anchor: middle;">ASDy</text></g><defs><marker id="arrowhead" refX="5" refY="2" markerWidth="6" markerHeight="4" orient="auto"><path d="M 0,0 V 4 L6,2 Z"/></marker></defs><defs><marker id="crosshead" markerWidth="15" markerHeight="8" orient="auto" refX="16" refY="4"><path fill="black" stroke="#000000" stroke-width="1px" d="M 9,2 V 6 L16,4 Z" style="stroke-dasharray: 0px, 0px;"/><path fill="none" stroke="#000000" stroke-width="1px" d="M 0,1 L 6,7 M 6,1 L 0,7" style="stroke-dasharray: 0px, 0px;"/></marker></defs><g><text x="175" y="93" class="messageText" style="text-anchor: middle;">read_block(x)</text><line x1="75" y1="100" x2="275" y2="100" class="messageLine0" stroke-width="2" stroke="black" marker-end="url(#arrowhead)" style="fill: none;"/></g><g><text x="575" y="128" class="messageText" style="text-anchor: middle;">partial_read([fragment_t,off, 4096])</text><line x1="275" y1="135" x2="875" y2="135" class="messageLine0" stroke-width="2" stroke="black" marker-end="url(#arrowhead)" style="fill: none;"/></g><g><text x="575" y="163" class="messageText" style="text-anchor: middle;">[data]</text><line x1="875" y1="170" x2="275" y2="170" class="messageLine1" stroke-width="2" stroke="black" marker-end="url(#arrowhead)" style="stroke-dasharray: 3px, 3px; fill: none;"/></g><g><text x="175" y="198" class="messageText" style="text-anchor: middle;">[data]</text><line x1="275" y1="205" x2="75" y2="205" class="messageLine1" stroke-width="2" stroke="black" marker-end="url(#arrowhead)" style="stroke-dasharray: 3px, 3px; fill: none;"/></g><g><rect x="0" y="225" fill="#eaeaea" stroke="#666" width="150" height="65" rx="3" ry="3" class="actor"/><text x="75" y="262.5" class="actor" style="text-anchor: middle;">Edge</text></g><g><rect x="200" y="225" fill="#eaeaea" stroke="#666" width="150" height="65" rx="3" ry="3" class="actor"/><text x="275" y="262.5" class="actor" style="text-anchor: middle;">VD</text></g><g><rect x="400" y="225" fill="#eaeaea" stroke="#666" width="150" height="65" rx="3" ry="3" class="actor"/><text x="475" y="262.5" class="actor" style="text-anchor: middle;">Proxy</text></g><g><rect x="600" y="225" fill="#eaeaea" stroke="#666" width="150" height="65" rx="3" ry="3" class="actor"/><text x="675" y="262.5" class="actor" style="text-anchor: middle;">NSM</text></g><g><rect x="800" y="225" fill="#eaeaea" stroke="#666" width="150" height="65" rx="3" ry="3" class="actor"/><text x="875" y="262.5" class="actor" style="text-anchor: middle;">ASDy</text></g></svg>